<svg xmlns="http://www.w3.org/2000/svg" width="166.807" height="102.086" viewBox="0 0 166.807 102.086">
	<g id="todologo" transform="translate(-0.004 0.007)">
		<path id="Path_1" data-name="Path 1" d="M65.67,67.06c-.96.05-1.06-.57-1-1.31-2.78-12.2-2.75-24.09,5.22-34.55,6.2-8.14,14.86-11.77,25-12.02,4.29-.47,8.11-2.52,12.21-3.59,1.31-.34,2.73-2.35,4.3-.35-3.65,9.79-9.42,18.35-16.12,26.2A140.2,140.2,0,0,1,72.19,63.43a34.447,34.447,0,0,1-6.53,3.62Z" fill="#4fa6d9"/>
		<path id="Path_2" data-name="Path 2" d="M94.9,19.19c-1.77,1.36-3.88,1.67-5.99,2.09-14.56,2.91-23.88,14.19-24.08,29.1-.07,5.12-.1,10.25-.16,15.37C60.4,57.4,54.93,49.53,54.62,39.64a26.922,26.922,0,0,1,9.49-22.06A230.028,230.028,0,0,0,81.08,1.51c1.49-1.6,2.56-2.36,4.15-.11,3.93,5.55,7.91,11.06,9.66,17.79Z" fill="#2692d1"/>
		<path id="Path_3" data-name="Path 3" d="M65.67,67.06c6.62-5.93,13.9-11.03,20.24-17.35a131.724,131.724,0,0,0,23.16-31.33c.62-1.16,1.11-2.42,2.34-3.12,1.29,7,2.58,13.93,1.52,21.18C110.55,52.75,100.34,63.45,84,66.09a76.569,76.569,0,0,1-18.33.98Z" fill="#8ac3e3"/>
		<path id="Path_4" data-name="Path 4" d="M.02,92.26c0-1.83.06-3.66-.01-5.48-.13-3.28,1.71-4.72,4.2-2.92,2.36,1.71,3.08-1.23,4.73-.71,5.22,1.64,10.41.76,15.69.13,2.67-.32,4.37,2.01,5.11,4.64,1.05,3.75.69,7.58.7,11.39,0,1.95-1.09,2.59-2.89,2.52-1.9-.08-1.98-1.38-2-2.78-.03-2.66.09-5.33-.18-7.96-.2-2.03-.95-4.01-3.6-3.95-2.7.06-3.81,1.83-3.98,4.21-.17,2.48-.05,4.98-.06,7.47,0,1.54.07,3.05-2.21,3.04s-2.77-1.27-2.72-3.21c.05-2.49.05-4.99-.07-7.47-.11-2.14-.8-3.96-3.41-4.06a3.7,3.7,0,0,0-4.05,3.57,81.678,81.678,0,0,0-.34,8.44c-.03,1.44-.22,2.66-2.08,2.71-1.84.05-2.83-.7-2.82-2.6V92.26H.01Z" fill="#9fd1ee"/>
		<path id="Path_5" data-name="Path 5" d="M139.45,84.42c0-2.36.01-4.34,0-6.32-.01-1.59.06-2.96,2.29-2.94,1.93,0,2.65.78,2.64,2.65-.05,7.12-.03,14.24-.02,21.36,0,1.84-1.41,3.52-2.58,2.51-2.74-2.36-4.68-.17-7,.24a8.145,8.145,0,0,1-8.56-3.8,9.889,9.889,0,0,1-.6-10.37c1.72-3.54,4.75-4.99,8.55-4.66a36.738,36.738,0,0,1,5.29,1.33Z" fill="#9fd1ee"/>
		<path id="Path_6" data-name="Path 6" d="M34.71,89.17c1.75-5.08,4.65-6.8,10.2-6.07,4.62.61,6.39,3.64,6.69,7.87a52.323,52.323,0,0,1,.03,5.46c-.11,3.19.95,7.85-4.97,4.06-1.25-.8-2.02.73-3.07,1.03-3.68,1.07-7.12.86-8.92-2.93-1.88-3.94.6-6.15,4.01-7.61,1.13-1.32,3.04-.81,5.13-2.08-3.58.6-6.34,1.41-9.09.26Z" fill="#9fd1ee"/>
		<path id="Path_7" data-name="Path 7" d="M73.44,92.52v5.46c.01,3.52-1.07,5.63-4.49,2.56-1.64-1.47-1.95.19-2.73.54-5.57,2.52-10.04.06-10.55-6.04-.25-2.96-.11-5.96-.17-8.93-.03-1.68.3-2.9,2.41-2.86,2.04.04,2.5,1.22,2.51,2.9.02,2.48.01,4.97.06,7.45.04,2.2.82,3.99,3.26,4.24a3.959,3.959,0,0,0,4.56-3.62,65.348,65.348,0,0,0,.36-8.41c.03-1.47.25-2.6,2.14-2.55,1.61.04,2.53.65,2.56,2.3.03,2.32,0,4.64,0,6.95h.05Z" fill="#9fd1ee"/>
		<path id="Path_8" data-name="Path 8" d="M120.78,92.5a9.218,9.218,0,0,1-9.24,9.55c-5.24-.02-9.16-4.14-9.13-9.61.03-5.73,3.63-9.41,9.19-9.4,5.46,0,9.2,3.86,9.18,9.46Z" fill="#9fd1ee"/>
		<path id="Path_9" data-name="Path 9" d="M157.58,83.04c5.57-.05,9.2,3.63,9.23,9.33.03,5.48-3.84,9.62-9.05,9.68a9.231,9.231,0,0,1-9.29-9.49c-.04-5.61,3.66-9.47,9.11-9.52Z" fill="#9fd1ee"/>
		<path id="Path_10" data-name="Path 10" d="M95.09,101.54c-3.31-.15-5.39-2.16-5.5-6.52-.07-2.94,1.66-6.62-2.59-8.49-.63-.28-.61-2.43.12-2.62,2.51-.63,2.55-2.57,3.05-4.42.31-1.18,1.41-1.21,2.43-1.21,1.17,0,1.99.52,1.93,1.72-.1,2.18.5,3.48,3,3.32,1.19-.08,1.69.83,1.79,1.94.13,1.54-.78,2.11-2.11,2.05-2.84-.13-2.89,1.88-2.53,3.66.44,2.22-1.93,5.65,2.41,6.37,1.87.31,2.66,1.35,2.14,3.11-.5,1.69-1.95,1.46-4.12,1.09Z" fill="#9fd1ee"/>
		<path id="Path_11" data-name="Path 11" d="M82.87,92.73v6.95c0,1.36-.59,2.17-2.06,2.19s-2.77-.33-2.8-2.05c-.08-4.8-.05-9.59,0-14.39.02-1.7,1.13-2.15,2.67-2.18,1.83-.03,2.22,1.03,2.22,2.53v6.95Z" fill="#9fd1ee"/>
		<path id="Path_12" data-name="Path 12" d="M34.71,89.17c1.96.17,3.92.61,5.49-1.22.95-1.11,2.4-.97,3.72-.82a2.532,2.532,0,0,1,2.42,2.67c-.07,1.75-1.71,1.07-2.72,1.15-1.64.11-3.3.03-4.95.04-.85-1.64-3.33.28-3.96-1.82Z" fill="#0069a6"/>
		<path id="Path_13" data-name="Path 13" d="M80.47,75.19c1.75.06,2.97.8,3.03,2.59a2.361,2.361,0,0,1-2.48,2.52c-1.63.11-3.05-.38-3.22-2.26-.16-1.83,1.02-2.63,2.67-2.85Z" fill="#9fd1ee"/>
		<path id="Path_14" data-name="Path 14" d="M129.51,91.31c.07-2.16,1.6-4.09,4.82-4.09,3.45,0,5.2,2.22,5.16,5.4-.04,2.96-1.89,5.17-4.97,5.15-3.27-.02-5.11-2.05-5.01-6.46Z" fill="#0069a6"/>
		<path id="Path_15" data-name="Path 15" d="M42.74,93.9c1.16.19,2.82-.46,2.87,1.23.07,1.97-1.47,2.83-3.29,3-1.48.15-2.75-.31-2.74-2.05,0-2.22,1.89-1.86,3.15-2.18Z" fill="#0069a6"/>
		<path id="Path_16" data-name="Path 16" d="M115.89,92.29c.1,3.08-1.07,5.43-4.36,5.42-2.98,0-4.19-2.13-4.16-5.06.03-3,.89-5.41,4.31-5.41,3.12,0,4.1,2.29,4.2,5.04Z" fill="#0069a6"/>
		<path id="Path_17" data-name="Path 17" d="M153.4,92.73c.04-2.88.79-5.45,4.25-5.47,3.07-.02,4.15,2.08,4.24,4.95.1,3.07-.93,5.43-4.21,5.48-2.96.05-4.32-2.02-4.27-4.96Z" fill="#0069a6"/>
	</g>
</svg>
